<?xml version="1.0" encoding="UTF-8" standalone="no"?>
<svg xmlns="http://www.w3.org/2000/svg" xmlns:xlink="http://www.w3.org/1999/xlink" style="isolation:isolate" viewBox="0 0 200.58 112.45" width="200.58pt" height="112.45pt"><defs><clipPath id="_clipPath_fHxCoerBGhU6Hq6XIWOd9uHHjqIfD3ex"><rect width="200.58" height="112.45"/></clipPath></defs><g clip-path="url(#_clipPath_fHxCoerBGhU6Hq6XIWOd9uHHjqIfD3ex)"><g><g clip-path="url(#_clipPath_W5TkLlBCUiNcaE5k5JECfYDZDMPvXXtp)"><text transform="matrix(0.468,0,0,0.468,0,110.127)" style="font-family:'Comfortaa';font-weight:700;font-size:180px;font-style:normal;fill:#000000;stroke:none;">LIVE</text></g><defs><clipPath id="_clipPath_W5TkLlBCUiNcaE5k5JECfYDZDMPvXXtp"><rect x="0" y="0" width="423.578" height="169.958" transform="matrix(0.468,0,0,0.468,0,35.975)"/></clipPath></defs><g clip-path="url(#_clipPath_fTkI8cKPJ9oPECJ94Tp7KnvhXwlMWchC)"><text transform="matrix(0.468,0,0,0.468,0,28.425)" style="font-family:'Comfortaa';font-weight:700;font-size:69px;font-style:normal;fill:#000000;stroke:none;">Je suis en</text></g><defs><clipPath id="_clipPath_fTkI8cKPJ9oPECJ94Tp7KnvhXwlMWchC"><rect x="0" y="0" width="362" height="76.935" transform="matrix(0.468,0,0,0.468,0,0)"/></clipPath></defs><g><path d=" M 175.804 17.988 C 175.804 11.844 180.792 6.856 186.935 6.856 C 193.078 6.856 198.066 11.844 198.066 17.988 C 198.066 24.131 193.078 29.119 186.935 29.119 C 180.792 29.119 175.804 24.131 175.804 17.988 Z " fill="rgb(160,97,248)"/><defs><filter id="ss1Q4CNPIvEGMSVSf80UpxHI2f9x9DRb" x="-200%" y="-200%" width="400%" height="400%" filterUnits="objectBoundingBox" color-interpolation-filters="sRGB"><feOffset xmlns="http://www.w3.org/2000/svg" in="SourceGraphic" dx="2" dy="2"/><feGaussianBlur xmlns="http://www.w3.org/2000/svg" stdDeviation="2.146804531419514" result="pf_100_offsetBlur"/><feComposite xmlns="http://www.w3.org/2000/svg" in="SourceGraphic" in2="pf_100_offsetBlur" result="pf_100_inverse" operator="out"/><feFlood xmlns="http://www.w3.org/2000/svg" flood-color="#000000" flood-opacity="0.5" result="pf_100_color"/><feComposite xmlns="http://www.w3.org/2000/svg" in="pf_100_color" in2="pf_100_inverse" operator="in" result="pf_100_shadow"/><feComposite xmlns="http://www.w3.org/2000/svg" in="pf_100_shadow" in2="SourceGraphic" operator="over"/></filter></defs><g filter="url(#ss1Q4CNPIvEGMSVSf80UpxHI2f9x9DRb)"><path d=" M 178.59 17.988 C 178.59 13.382 182.329 9.642 186.935 9.642 C 191.541 9.642 195.28 13.382 195.28 17.988 C 195.28 22.593 191.541 26.333 186.935 26.333 C 182.329 26.333 178.59 22.593 178.59 17.988 Z " fill="rgb(213,10,10)"/></g></g></g></g></svg>